<?xml version="1.0" standalone="no"?>
<!DOCTYPE svg PUBLIC "-//W3C//DTD SVG 20010904//EN"
 "http://www.w3.org/TR/2001/REC-SVG-20010904/DTD/svg10.dtd">
<svg version="1.0" xmlns="http://www.w3.org/2000/svg"
 width="512.000000pt" height="512.000000pt" viewBox="0 0 512.000000 512.000000"
 preserveAspectRatio="xMidYMid meet">

<g transform="translate(0.000000,512.000000) scale(0.100000,-0.100000)"
fill="#000000" stroke="none">
<path d="M0 4919 l0 -201 43 7 c23 4 49 11 57 15 8 4 62 15 120 24 58 10 140
24 183 32 98 19 132 13 146 -28 6 -17 11 -45 11 -63 0 -35 18 -95 29 -95 3 0
37 18 75 40 37 22 70 40 72 40 3 0 23 12 45 26 77 48 184 101 229 112 60 15
229 40 310 47 36 2 97 8 135 11 39 3 127 1 197 -6 140 -13 162 -10 173 23 4
12 9 29 12 37 2 8 7 52 10 98 l6 82 -927 0 -926 0 0 -201z"/>
<path d="M3040 4945 l0 -175 34 0 c37 0 153 22 224 42 58 17 56 36 -20 185
l-63 123 -87 0 -88 0 0 -175z"/>
<path d="M3534 5079 c-4 -22 -11 -42 -15 -45 -5 -3 -9 -14 -9 -25 0 -12 4 -17
11 -13 6 4 10 -1 8 -12 -1 -11 4 -32 11 -49 l12 -30 10 28 c5 15 14 27 19 27
13 0 11 -14 -3 -28 -9 -9 -9 -15 0 -24 8 -8 12 -9 12 -1 0 15 42 4 57 -14 13
-17 105 -30 263 -37 70 -3 143 -12 188 -25 45 -12 72 -16 72 -9 0 7 4 7 13 -1
8 -6 17 -8 20 -4 4 3 14 0 23 -8 16 -13 17 -12 10 11 -8 26 -25 95 -53 223
l-17 77 -313 0 -313 -1 -6 -40z"/>
<path d="M4190 5107 c0 -23 81 -300 96 -330 12 -22 39 -39 112 -73 53 -24 106
-49 117 -56 11 -6 51 -29 88 -50 134 -73 351 -239 424 -322 23 -27 39 -36 62
-36 l31 0 0 440 0 440 -465 0 c-379 0 -465 -2 -465 -13z"/>
<path d="M3495 5067 c-4 -10 -5 -21 -1 -24 10 -10 18 4 13 24 -4 17 -4 17 -12
0z"/>
<path d="M1299 4816 c-2 -3 -63 -11 -136 -20 -129 -15 -134 -16 -265 -80 -156
-77 -252 -128 -276 -148 -18 -15 -73 -41 -77 -36 -8 11 -25 133 -25 185 0 35
-3 63 -7 63 -5 0 -33 -7 -63 -15 -30 -8 -93 -17 -140 -20 -47 -4 -121 -13
-165 -20 -44 -8 -93 -16 -110 -17 l-30 -3 -3 -227 -2 -228 25 0 c39 0 42 -27
6 -64 l-31 -32 0 -2077 0 -2077 960 0 960 0 0 60 c0 78 2 73 -34 85 -37 12
-45 39 -19 68 10 12 29 42 41 67 21 45 47 69 146 133 37 24 59 50 92 107 24
41 43 80 44 85 0 6 -38 9 -97 8 l-98 -2 57 15 c39 11 58 22 61 35 3 10 13 19
23 19 10 0 29 10 42 22 23 21 25 21 18 4 -7 -19 -6 -19 14 -1 11 10 20 15 20
10 0 -4 8 3 19 16 30 39 87 168 117 262 19 62 30 85 37 78 14 -14 54 -14 63 0
4 7 25 -27 50 -78 23 -49 49 -95 57 -101 13 -11 17 -6 26 36 16 75 29 167 40
276 10 94 9 101 -16 165 -14 36 -34 73 -44 82 -10 9 -43 20 -74 24 -35 4 -65
15 -83 29 -15 12 -46 33 -69 46 -41 22 -43 23 -85 7 -45 -18 -138 -23 -138 -9
0 5 -29 14 -64 21 -50 10 -66 18 -77 37 -17 33 1 46 54 37 24 -4 37 -2 37 6 0
6 7 11 15 11 19 0 20 29 0 36 -20 8 -9 24 16 24 28 0 23 17 -6 22 -14 3 -25 2
-25 -2 0 -4 -18 -3 -39 2 -38 10 -38 11 -23 29 10 11 51 46 92 77 41 31 95 75
119 97 l43 40 -5 133 c-3 74 -7 136 -10 138 -4 5 -180 -173 -294 -297 -64 -69
-84 -101 -89 -134 -2 -11 -8 -45 -15 -76 -7 -31 -10 -63 -6 -72 7 -20 52 -23
64 -4 14 21 73 71 73 61 0 -5 -11 -21 -25 -36 -14 -15 -25 -31 -25 -36 0 -6
-15 -13 -33 -16 -31 -6 -33 -9 -29 -38 3 -22 1 -29 -7 -23 -7 4 -22 -1 -34
-12 -12 -10 -41 -32 -64 -47 -24 -16 -43 -33 -43 -37 0 -5 -11 -9 -23 -9 -13
0 -38 -7 -55 -16 -17 -8 -48 -18 -69 -21 -21 -3 -74 -16 -118 -30 -44 -14 -98
-29 -120 -33 -115 -22 -161 -33 -170 -38 -5 -4 -57 -15 -115 -24 -157 -25
-357 -12 -455 29 -44 19 -125 80 -125 95 0 5 -9 27 -20 49 -10 23 -22 61 -26
86 -4 27 -19 62 -38 86 -112 150 -234 372 -221 405 3 9 3 13 -1 9 -11 -11 -54
169 -54 224 0 121 63 309 128 383 14 15 18 49 23 180 5 158 15 206 42 206 23
0 55 65 72 145 9 44 23 95 31 114 l14 34 44 -57 c25 -31 50 -72 56 -90 10 -33
9 -36 -30 -74 -22 -22 -40 -46 -40 -54 0 -10 3 -9 10 2 5 8 12 11 16 7 4 -4
-2 -17 -13 -30 -35 -38 -70 -109 -94 -187 -20 -65 -23 -97 -24 -235 0 -134 -3
-162 -16 -175 -9 -8 -26 -35 -39 -59 -30 -60 -26 -182 10 -256 l24 -50 6 115
c7 154 11 160 105 153 97 -8 159 3 193 32 34 30 18 45 -38 38 -44 -6 -118 16
-167 50 -26 18 -35 32 -44 77 -24 117 10 319 73 430 24 43 83 90 114 90 18 0
24 -8 32 -47 24 -108 24 -135 2 -150 -21 -15 -26 -48 -11 -72 14 -22 -6 -54
-30 -48 -17 5 -19 -1 -19 -53 0 -65 20 -99 69 -120 17 -7 33 -22 37 -33 4 -12
13 -28 21 -36 10 -10 14 -27 10 -51 -2 -20 1 -49 9 -66 l13 -29 0 40 c0 68 31
175 71 243 19 32 19 32 0 22 -10 -5 -22 -15 -25 -20 -3 -6 -12 -10 -19 -10
-10 0 -15 32 -20 123 -4 67 -11 155 -17 195 -7 58 -6 78 5 93 18 27 135 119
150 119 7 0 31 -29 54 -63 56 -84 173 -180 194 -159 8 8 8 15 1 24 -27 32 -64
149 -71 221 -5 42 -7 77 -6 77 1 0 28 -25 59 -55 65 -62 131 -91 240 -107 89
-13 143 -6 225 27 81 33 149 83 183 133 32 45 33 52 9 52 -40 0 -232 107 -232
129 0 16 55 45 95 51 38 5 40 7 43 45 2 22 12 51 22 65 18 24 23 25 127 24 97
0 115 -3 178 -30 39 -17 104 -52 145 -80 41 -27 81 -53 88 -57 8 -5 16 1 23
20 10 26 12 27 23 10 25 -40 58 -81 52 -64 -4 12 -2 16 5 11 16 -9 56 15 62
37 7 26 25 24 30 -3 3 -14 5 -7 6 17 2 32 4 36 11 20 8 -18 9 -17 9 8 1 19 5
26 13 21 18 -12 2 185 -27 326 -28 137 -46 196 -75 250 -15 28 -21 69 -28 199
l-8 163 -65 62 c-125 118 -118 114 -314 163 -271 67 -415 93 -525 93 -53 0
-99 -2 -101 -4z m-573 -1022 c-9 -24 14 -245 36 -339 30 -129 30 -124 -27
-145 -27 -11 -58 -24 -67 -29 -15 -9 -19 -4 -31 37 -8 26 -35 93 -59 148 -50
112 -50 118 4 198 62 91 165 184 144 130z m1362 -2251 c-10 -2 -28 -2 -40 0
-13 2 -5 4 17 4 22 1 32 -1 23 -4z m-1553 -303 c19 -8 19 -9 -2 -9 -12 -1 -25
4 -28 9 -7 12 2 12 30 0z m89 -52 c-2 -4 0 -9 6 -13 5 -3 10 2 11 12 1 13 3
10 9 -7 l7 -25 11 25 11 25 0 -29 c1 -28 2 -29 15 -10 8 10 17 16 21 12 14
-14 -41 -88 -65 -88 -5 0 -10 11 -10 24 0 13 -13 37 -28 54 -27 28 -27 30 -6
28 12 0 20 -4 18 -8z m1087 -119 c11 -22 19 -50 17 -62 -2 -13 2 -21 9 -20 6
1 14 -4 17 -12 3 -8 1 -15 -5 -15 -6 0 -8 -10 -5 -22 4 -13 -6 1 -21 30 -24
45 -25 54 -13 63 12 8 12 9 -3 7 -13 -2 -23 7 -32 30 -9 21 -10 30 -3 26 8 -5
9 -2 5 10 -12 32 13 5 34 -35z m-126 33 c20 -13 54 -68 61 -98 4 -16 11 -34
16 -41 5 -6 10 -31 11 -55 2 -39 0 -43 -23 -46 -43 -6 -50 -20 -50 -98 0 -41
-4 -74 -9 -74 -5 0 -14 43 -21 96 -12 102 -22 136 -64 229 -15 32 -25 59 -23
61 6 6 72 33 82 33 6 1 15 -3 20 -7z m-1239 -241 c-14 -51 -18 -61 -24 -61 -4
0 -12 12 -19 26 -9 20 -9 26 3 31 8 3 14 11 14 19 0 8 6 11 15 8 9 -4 14 -14
11 -23z m404 -65 c0 -3 -4 -8 -10 -11 -5 -3 -10 -1 -10 4 0 6 5 11 10 11 6 0
10 -2 10 -4z m-121 -96 c0 -10 -3 -8 -9 5 -12 27 -12 43 0 25 5 -8 9 -22 9
-30z m1306 -88 c-9 -9 -23 11 -30 43 l-7 30 22 -34 c11 -18 19 -36 15 -39z
m-100 19 c-3 -6 -18 -11 -33 -11 -29 0 -20 15 13 22 24 5 29 3 20 -11z m5
-466 c0 -9 -6 -12 -15 -9 -8 4 -12 10 -9 15 8 14 24 10 24 -6z"/>
<path d="M3512 4734 c-8 -9 -22 -12 -34 -8 -14 4 -18 2 -14 -5 5 -7 -4 -11
-27 -11 -49 0 -146 -18 -192 -37 -202 -80 -433 -194 -470 -232 -24 -26 -29
-38 -26 -74 1 -23 6 -43 10 -45 5 -1 6 -13 4 -26 -8 -42 39 -39 192 13 56 19
170 51 185 52 27 2 37 -1 60 -21 13 -11 31 -20 41 -20 10 0 30 -5 44 -12 29
-13 189 1 332 29 72 14 85 14 100 2 55 -44 129 -53 252 -29 29 5 57 10 61 10
4 0 12 -17 18 -38 10 -34 16 -39 60 -50 26 -7 118 -13 206 -14 169 -1 188 -7
150 -49 -40 -44 -219 -128 -274 -129 -11 0 -15 12 -15 52 l0 53 -90 46 -90 47
-80 -9 c-93 -11 -163 -23 -187 -34 -13 -5 -21 1 -34 28 -19 40 -60 67 -101 67
-28 0 -224 -58 -233 -69 -3 -3 -21 -14 -40 -25 -19 -10 -50 -27 -68 -37 -41
-24 -52 -24 -52 -1 0 10 -21 38 -46 62 -42 40 -50 43 -100 43 -45 0 -71 -8
-148 -47 l-93 -47 4 -67 c3 -37 5 -80 4 -97 -1 -67 33 -321 46 -333 7 -7 13
-20 13 -28 0 -21 26 -17 44 9 l17 22 -6 -25 c-4 -14 -9 -67 -12 -117 -3 -52
-10 -93 -16 -93 -6 0 -7 -48 -3 -139 6 -115 5 -148 -9 -187 -9 -26 -13 -59
-10 -75 4 -15 1 -37 -7 -49 -9 -17 -10 -24 -2 -27 14 -5 8 -72 -9 -117 -6 -17
-10 -42 -9 -58 2 -19 -2 -28 -12 -28 -8 0 -20 -8 -25 -17 -6 -11 -11 -13 -11
-5 0 7 -5 10 -10 7 -6 -4 -8 -11 -5 -16 4 -5 -2 -9 -13 -9 -48 0 -112 -57
-112 -100 0 -7 -6 -26 -14 -43 -8 -18 -22 -51 -32 -75 -14 -33 -25 -45 -47
-49 -30 -6 -50 -33 -41 -56 3 -8 -3 -22 -12 -32 -10 -9 -28 -49 -41 -88 -14
-40 -29 -74 -34 -78 -11 -7 -39 -103 -39 -137 0 -12 7 -25 15 -28 11 -5 12
-11 4 -25 -13 -26 49 -200 70 -196 8 1 16 -4 19 -12 3 -8 0 -11 -7 -7 -6 4
-11 2 -11 -3 0 -13 10 -14 28 -3 7 5 10 16 6 25 -3 10 -1 17 5 17 6 0 11 -6
11 -14 0 -9 8 -12 25 -8 14 2 25 9 25 14 0 6 7 7 16 4 8 -3 22 1 30 9 21 21
41 19 49 -4 3 -10 18 -31 33 -46 15 -15 37 -48 49 -74 12 -25 22 -38 22 -28 1
10 5 16 11 12 5 -3 8 -34 6 -69 -3 -50 0 -66 13 -78 9 -8 22 -13 28 -11 6 2
14 -5 18 -16 3 -11 24 -30 46 -43 39 -21 50 -38 27 -38 -9 0 -9 -3 0 -12 17
-17 15 -45 -4 -52 -8 -3 -28 1 -45 9 -16 9 -32 15 -35 14 -4 0 -10 5 -14 11
-4 7 -13 -48 -20 -122 -27 -304 -56 -458 -84 -458 -7 0 -18 -19 -25 -42 -22
-78 -56 -158 -67 -162 -16 -6 -79 28 -130 70 -23 19 -45 34 -51 34 -11 0 -83
-132 -82 -152 0 -7 5 -3 11 10 6 12 15 22 20 22 5 0 4 -9 -2 -19 -17 -32 -11
-38 12 -11 19 23 20 23 14 4 -6 -19 -4 -21 26 -16 31 5 52 5 140 1 21 -1 36
-6 35 -13 -1 -6 20 -21 47 -34 55 -27 68 -38 80 -67 6 -13 10 -16 13 -7 7 19
41 -49 49 -96 4 -26 1 -49 -9 -68 -14 -26 -14 -39 -1 -104 22 -118 22 -123 23
-152 l1 -28 1135 0 1135 0 0 349 0 348 -77 8 c-77 8 -219 11 -278 7 -16 -2
-49 0 -71 4 -55 8 -63 -8 -26 -50 49 -56 71 -130 74 -248 3 -96 2 -103 -16
-100 -10 2 -34 -5 -52 -14 -33 -18 -35 -18 -71 1 -50 26 -50 25 -33 36 10 7
-4 8 -45 3 -33 -3 -108 -6 -167 -7 -86 0 -110 3 -123 17 -37 37 -95 32 -114
-11 -11 -24 -15 -25 -62 -20 -28 4 -56 10 -63 15 -6 5 -23 9 -38 10 -15 1 -42
11 -60 22 -65 39 -104 58 -123 62 -11 1 -26 11 -33 20 -6 9 -25 19 -42 23 -16
4 -32 11 -35 15 -3 5 -33 23 -65 41 -33 17 -60 36 -60 40 0 5 -9 9 -21 9 -14
0 -24 10 -32 30 -6 16 -15 30 -18 30 -4 0 -10 18 -14 40 -4 22 -11 40 -17 40
-11 0 -4 39 19 112 8 26 19 45 24 42 5 -3 9 1 9 9 0 21 73 89 122 113 99 50
136 64 152 58 9 -3 16 -1 16 5 0 18 130 11 214 -11 43 -11 80 -28 95 -43 l24
-24 61 32 c33 18 66 37 73 42 6 6 43 29 80 53 42 27 83 63 106 95 21 28 63 79
92 112 30 33 67 76 83 95 27 31 32 33 47 20 31 -26 4 -124 -69 -248 -27 -46
-34 -53 -56 -48 -21 4 -83 -26 -110 -54 -14 -15 -80 -60 -87 -60 -4 0 -20 -12
-35 -25 -25 -21 -27 -27 -17 -52 11 -30 105 -123 124 -123 7 0 38 13 69 28 30
16 58 27 61 24 3 -3 -17 -20 -44 -38 -27 -19 -52 -38 -55 -43 -16 -25 22 -18
104 20 l90 42 42 -47 c38 -45 44 -47 77 -41 20 4 40 11 45 16 6 5 24 9 40 9
24 0 27 3 16 10 -10 6 -11 10 -2 10 6 0 12 7 12 15 0 44 55 49 113 10 20 -13
25 -21 17 -30 -26 -32 11 -55 88 -55 l42 0 0 125 c0 69 -4 125 -8 125 -5 0
-18 -9 -30 -20 -12 -11 -25 -20 -30 -20 -14 0 -22 -41 -15 -69 6 -24 -1 -24
-32 1 -5 4 -21 16 -33 26 l-24 18 23 1 c13 1 25 7 27 13 2 5 10 10 17 10 8 0
16 8 19 18 4 11 19 25 34 33 54 28 52 16 50 333 l-3 296 -70 -88 c-143 -180
-335 -382 -362 -382 -7 0 -13 -4 -13 -8 0 -12 -56 -42 -80 -42 -20 0 -20 1 7
23 15 12 48 35 73 51 42 26 320 301 320 317 0 4 7 9 15 13 8 3 19 16 24 29 5
13 28 54 50 91 l41 66 0 1235 0 1235 -42 -5 c-24 -3 -55 -8 -70 -10 -33 -5
-37 11 -9 46 10 13 16 31 13 39 -5 17 -59 70 -71 70 -4 0 -16 9 -25 19 -18 19
-61 36 -84 32 -6 -1 -27 10 -46 24 -18 14 -40 25 -49 25 -10 0 -14 6 -11 14 4
10 -1 12 -18 9 -15 -3 -30 3 -42 16 -10 11 -24 17 -32 14 -9 -3 -14 0 -12 7 2
8 -13 17 -37 23 -22 5 -42 13 -45 16 -3 4 -17 12 -32 18 -24 11 -28 10 -28 -2
0 -10 -11 -15 -35 -15 -23 0 -35 5 -35 14 0 10 9 13 28 11 15 -2 32 1 37 5 6
4 19 10 30 14 11 3 -2 3 -29 0 -31 -4 -46 -2 -42 5 3 5 -3 12 -14 16 -11 3
-20 11 -20 16 0 5 -11 9 -25 9 -14 0 -37 11 -50 24 -27 27 -75 43 -75 25 0 -8
-4 -8 -15 1 -15 12 -29 15 -140 26 -38 4 -78 11 -88 16 -9 5 -58 11 -107 13
-49 2 -95 7 -101 11 -8 4 -9 3 -5 -4 4 -7 2 -12 -3 -12 -6 0 -11 4 -11 9 0 12
-54 19 -170 25 -66 3 -88 1 -98 -10z m81 -1 c-7 -2 -21 -2 -30 0 -10 3 -4 5
12 5 17 0 24 -2 18 -5z m807 -183 c0 -5 -2 -10 -4 -10 -3 0 -8 5 -11 10 -3 6
-1 10 4 10 6 0 11 -4 11 -10z m159 -636 c133 -41 140 -44 147 -83 4 -20 2 -36
-4 -40 -13 -8 -9 -66 4 -66 20 -1 35 -18 31 -36 -5 -18 26 -122 42 -144 4 -5
13 -37 20 -70 7 -33 23 -87 36 -120 13 -33 36 -102 51 -152 15 -51 33 -93 39
-93 6 0 11 -9 12 -20 1 -13 -14 -29 -45 -49 -26 -16 -85 -57 -132 -91 -47 -33
-111 -78 -142 -98 -32 -20 -60 -45 -63 -54 -4 -10 -12 -18 -18 -19 -23 -1
-102 -66 -103 -85 -1 -10 -9 -36 -18 -57 -9 -20 -23 -72 -31 -113 -14 -76 -14
-76 12 -121 29 -50 46 -61 68 -43 21 18 18 33 -5 27 -25 -6 -27 21 -4 64 12
24 13 34 4 45 -15 18 -4 64 15 64 9 0 12 6 8 17 -4 10 -2 14 5 9 6 -3 13 -2
16 3 4 5 1 13 -5 16 -5 4 -8 14 -5 22 3 8 2 12 -3 9 -5 -3 -12 1 -15 9 -10 26
23 29 56 5 l30 -22 -6 29 c-8 34 9 54 69 79 36 15 40 15 51 -1 17 -23 28 -116
21 -175 -13 -105 -36 -160 -96 -222 -35 -36 -65 -58 -79 -58 -24 0 -27 -7 -13
-29 19 -30 67 -17 110 30 22 24 41 50 41 57 0 8 9 25 20 39 21 27 27 15 9 -19
-15 -28 -19 -54 -29 -188 -9 -129 -16 -160 -41 -177 -9 -7 -28 -30 -40 -50
-26 -41 -50 -66 -119 -121 -25 -20 -112 -103 -194 -184 -157 -157 -202 -198
-216 -198 -5 0 -34 34 -65 76 l-56 76 78 79 c43 44 116 112 163 151 47 40 90
78 96 85 16 18 24 5 24 -39 0 -27 4 -38 15 -38 40 0 47 97 9 150 -13 19 -37
54 -53 77 -15 23 -31 40 -35 36 -3 -3 -6 -1 -6 5 0 7 -7 12 -16 12 -8 0 -13 4
-10 8 4 8 -108 75 -184 110 -14 6 -81 25 -150 43 -176 45 -252 82 -320 159
-62 70 -79 96 -80 125 -1 16 -4 14 -12 -8 -7 -18 -7 -36 -1 -50 7 -15 2 -39
-19 -93 -34 -87 -58 -221 -58 -320 0 -41 -3 -74 -6 -74 -3 0 -43 11 -88 25
-169 51 -381 88 -395 68 -3 -5 -29 -7 -61 -3 -52 6 -53 7 -25 16 17 5 75 9
131 9 l100 -1 23 91 c27 108 68 225 87 244 12 13 17 12 36 -6 29 -27 85 -50
143 -58 43 -7 45 -6 45 16 -1 13 -7 42 -15 64 -8 22 -27 96 -42 165 -39 178
-39 367 0 524 25 98 42 150 68 198 5 10 9 25 9 33 0 21 2 20 48 -22 58 -54 70
-63 84 -64 7 0 3 -4 -9 -9 -55 -22 -84 -76 -45 -86 15 -4 17 -19 19 -107 1
-56 5 -112 8 -124 4 -19 1 -23 -20 -23 -23 0 -25 -3 -19 -27 12 -52 25 -64
100 -99 72 -33 188 -99 216 -123 42 -36 147 -108 151 -105 3 3 0 21 -6 40 -9
29 -8 37 4 45 10 6 6 9 -15 9 -33 0 -96 38 -96 58 0 9 -7 11 -20 7 -23 -7 -70
18 -70 38 0 7 11 29 25 49 20 29 25 49 25 98 l0 60 -25 -16 c-35 -23 -73 -6
-81 36 -5 21 -12 30 -25 30 -11 0 -19 -3 -19 -7 0 -5 -17 -8 -37 -8 -30 0 -40
5 -50 25 -18 36 -16 131 3 158 28 40 131 84 209 89 63 4 75 2 125 -25 71 -38
107 -83 120 -152 6 -30 11 -143 11 -250 -1 -192 6 -237 30 -213 14 14 30 226
23 308 l-5 60 41 -90 c23 -49 49 -96 58 -102 16 -13 157 -18 186 -7 31 12 15
22 -44 26 -33 2 -62 6 -65 9 -2 3 -12 36 -21 75 -36 153 -135 455 -175 535
-30 61 -93 111 -159 124 -19 4 -48 13 -65 20 -56 25 -167 57 -172 51 -8 -8
-11 -6 96 -62 54 -28 104 -62 117 -80 28 -36 54 -96 54 -123 0 -17 -4 -19 -32
-10 -18 5 -52 9 -75 9 -23 0 -55 5 -70 12 -41 18 -133 90 -176 137 -35 39 -49
81 -27 81 6 0 10 5 10 10 0 6 5 16 10 23 6 7 18 22 28 34 14 18 31 23 92 28
113 9 400 44 440 54 164 42 179 47 295 103 44 21 82 38 84 38 1 0 42 -12 90
-26z m168 -146 c-3 -8 -6 -5 -6 6 -1 11 2 17 5 13 3 -3 4 -12 1 -19z m-1240
-235 c12 -21 49 -64 82 -95 33 -32 54 -58 47 -58 -8 0 -16 -5 -18 -12 -5 -15
-101 32 -153 75 l-34 28 19 32 c11 18 20 40 20 50 0 28 15 20 37 -20z m1280
-893 c-3 -11 -1 -20 3 -20 5 0 8 -9 7 -20 -1 -22 -5 -24 -27 -10 -12 8 -12 10
5 10 13 0 16 3 8 8 -11 7 -7 52 4 52 3 0 3 -9 0 -20z m-24 -152 c-6 -7 -13
-20 -16 -28 -3 -8 -5 -3 -4 13 1 16 7 27 15 27 10 0 11 -4 5 -12z m-982 -254
c210 -63 358 -136 429 -209 l35 -37 -37 -32 c-36 -31 -95 -56 -133 -56 -28 0
-98 44 -235 148 -171 129 -170 129 -170 174 0 46 1 46 111 12z m-1291 -204 c0
-5 -5 -10 -11 -10 -5 0 -7 5 -4 10 3 6 8 10 11 10 2 0 4 -4 4 -10z m442 -8 c7
-10 21 -21 31 -25 9 -3 17 -13 17 -22 0 -14 -2 -14 -24 0 -28 19 -61 65 -47
65 6 0 16 -8 23 -18z m206 -127 c42 -20 79 -40 82 -44 11 -16 179 -74 250 -87
l75 -13 -75 5 c-64 5 -203 42 -275 73 -127 56 -166 86 -149 113 6 9 9 9 12 0
2 -6 38 -28 80 -47z m492 10 c7 -8 8 -15 2 -15 -5 0 -15 7 -22 15 -7 8 -8 15
-2 15 5 0 15 -7 22 -15z m105 -63 c46 -29 55 -40 54 -67 0 -14 -2 -16 -6 -5
-10 28 -38 52 -85 76 -27 13 -48 27 -48 30 0 9 43 -8 85 -34z m5 -102 c0 -6
-30 -9 -72 -8 l-73 1 65 7 c36 4 68 7 73 8 4 1 7 -2 7 -8z m-880 -155 c0 -8
-2 -15 -4 -15 -2 0 -6 7 -10 15 -3 8 -1 15 4 15 6 0 10 -7 10 -15z m2014
-1041 c3 -9 6 -25 6 -36 0 -32 26 -49 85 -55 57 -6 77 -23 26 -23 -54 0 -92
-12 -87 -27 3 -8 1 -11 -4 -8 -6 3 -10 -5 -10 -19 0 -14 -4 -28 -10 -31 -11
-7 -17 17 -24 103 -3 34 -9 74 -12 87 -4 18 -2 25 9 25 8 0 18 -7 21 -16z
m243 -86 c5 -38 4 -41 -10 -29 -9 7 -21 10 -27 6 -5 -3 -10 -2 -10 3 0 6 7 12
15 16 8 3 15 18 15 32 0 40 12 21 17 -28z"/>
<path d="M4631 3854 c-7 -9 -10 -19 -5 -24 5 -5 14 2 21 16 13 27 5 31 -16 8z"/>
<path d="M4660 3821 c0 -19 17 -38 25 -29 7 7 -7 48 -16 48 -5 0 -9 -9 -9 -19z"/>
<path d="M3440 3300 c0 -5 5 -10 11 -10 5 0 7 5 4 10 -3 6 -8 10 -11 10 -2 0
-4 -4 -4 -10z"/>
<path d="M4618 2243 c7 -3 16 -2 19 1 4 3 -2 6 -13 5 -11 0 -14 -3 -6 -6z"/>
<path d="M3848 4733 c7 -3 16 -2 19 1 4 3 -2 6 -13 5 -11 0 -14 -3 -6 -6z"/>
<path d="M3075 4650 c-3 -5 -2 -10 4 -10 5 0 13 5 16 10 3 6 2 10 -4 10 -5 0
-13 -4 -16 -10z"/>
<path d="M4807 4409 c7 -7 15 -10 18 -7 3 3 -2 9 -12 12 -14 6 -15 5 -6 -5z"/>
<path d="M2442 3520 c0 -14 2 -19 5 -12 2 6 2 18 0 25 -3 6 -5 1 -5 -13z"/>
<path d="M1550 2643 c-63 -7 -195 -52 -382 -130 -101 -41 -196 -78 -211 -81
l-29 -5 4 69 c2 38 8 77 12 87 5 10 4 17 -2 17 -16 0 -30 -51 -37 -139 l-6
-83 81 4 c78 3 81 2 74 -17 -3 -11 -9 -54 -11 -96 -9 -138 37 -239 109 -239
56 0 212 -59 263 -100 18 -14 139 -20 180 -9 49 14 166 80 159 91 -3 4 -1 8 5
8 6 0 18 14 27 31 12 24 15 53 12 119 -1 49 0 83 4 77 4 -7 9 -48 10 -92 1
-45 3 -63 5 -40 3 22 9 42 14 46 10 6 -14 137 -31 169 -6 10 -10 30 -10 43 0
22 6 26 45 31 54 9 58 21 9 31 -20 3 -34 8 -32 11 8 7 108 -19 108 -28 0 -5
11 -13 25 -18 14 -5 25 -14 25 -20 0 -26 41 -5 93 48 92 93 77 123 -89 178
-121 39 -282 53 -424 37z m80 -229 c68 -44 97 -84 110 -153 23 -120 7 -188
-52 -231 -47 -34 -81 -37 -154 -15 -55 18 -290 54 -346 55 -82 0 -117 47 -126
166 -4 57 -1 77 16 110 29 56 40 63 123 74 102 13 101 13 94 -9 -5 -15 0 -21
25 -26 35 -8 48 -28 30 -50 -9 -11 -6 -17 17 -28 41 -21 68 -24 86 -8 10 7 17
9 17 3 0 -14 -21 -29 -53 -37 -23 -6 -33 -2 -62 29 -31 33 -55 46 -55 29 0 -4
17 -24 37 -45 44 -45 75 -48 124 -15 33 22 34 25 34 87 -1 36 -4 73 -9 83 -7
15 -2 17 40 17 39 0 60 -7 104 -36z m163 9 c-7 -2 -19 -2 -25 0 -7 3 -2 5 12
5 14 0 19 -2 13 -5z"/>
<path d="M140 2255 c0 -5 5 -17 10 -25 5 -8 10 -10 10 -5 0 6 -5 17 -10 25 -5
8 -10 11 -10 5z"/>
<path d="M459 2213 c-1 -5 0 -12 2 -18 1 -5 3 -143 3 -305 1 -286 2 -297 24
-345 52 -113 128 -158 316 -185 152 -23 328 13 427 86 67 49 129 143 129 195
0 86 -50 159 -139 204 -91 45 -143 59 -153 40 -9 -14 -19 -14 -231 0 -43 3
-101 14 -128 24 -51 20 -58 11 -11 -13 30 -15 189 -35 329 -41 85 -3 133 -15
133 -33 0 -12 -123 -90 -152 -98 -21 -4 -42 2 -83 25 -43 25 -74 33 -144 40
-102 11 -142 28 -188 80 -48 54 -56 75 -49 117 l7 37 50 -49 c27 -26 49 -43
49 -38 0 6 -9 19 -20 29 -31 28 -118 159 -140 210 -18 42 -28 55 -31 38z"/>
</g>
</svg>
